<?xml version="1.0" encoding="UTF-8" standalone="no"?><!DOCTYPE svg PUBLIC "-//W3C//DTD SVG 1.1//EN" "http://www.w3.org/Graphics/SVG/1.1/DTD/svg11.dtd"><svg width="100%" height="100%" viewBox="0 0 68 8" version="1.1" xmlns="http://www.w3.org/2000/svg" xmlns:xlink="http://www.w3.org/1999/xlink" xml:space="preserve" style="fill-rule:evenodd;clip-rule:evenodd;stroke-linejoin:round;stroke-miterlimit:1.41421;"><path d="M4.266,1.489c-0.34,-0.63 -0.944,-0.995 -1.659,-0.995c-0.953,0 -1.795,0.638 -1.795,1.633c0,0.919 0.646,1.302 1.395,1.642l0.392,0.17c0.595,0.273 1.182,0.528 1.182,1.277c0,0.723 -0.629,1.25 -1.319,1.25c-0.689,0 -1.191,-0.536 -1.284,-1.191l-0.698,0.196c0.204,0.995 0.97,1.659 1.999,1.659c1.115,0 2.017,-0.859 2.017,-1.983c0,-1.02 -0.706,-1.437 -1.54,-1.803l-0.426,-0.187c-0.433,-0.196 -1.003,-0.451 -1.003,-1.004c0,-0.587 0.493,-0.996 1.063,-0.996c0.545,0 0.851,0.255 1.106,0.698l0.57,-0.366Z" style="fill:#999;fill-rule:nonzero;"/><path d="M7.831,1.268l1.566,0l0,-0.664l-3.829,0l0,0.664l1.548,0l0,5.751l0.715,0l0,-5.751Z" style="fill:#999;fill-rule:nonzero;"/><path d="M11.43,1.268l0.213,0c0.859,0 1.633,0.102 1.633,1.157c0,0.995 -0.817,1.148 -1.625,1.148l-0.221,0l0,-2.305Zm0,2.935l0.179,0l1.939,2.816l0.877,0l-2.042,-2.875c0.987,-0.086 1.608,-0.783 1.608,-1.77c0,-1.447 -1.132,-1.77 -2.348,-1.77l-0.928,0l0,6.415l0.715,0l0,-2.816Z" style="fill:#999;fill-rule:nonzero;"/><path d="M19.615,5.199l0.757,1.82l0.791,0l-2.884,-6.721l-2.961,6.721l0.783,0l0.774,-1.82l2.74,0Zm-0.281,-0.664l-2.17,0l1.098,-2.57l1.072,2.57Z" style="fill:#999;fill-rule:nonzero;"/><path d="M22.627,0.604l-0.775,0l2.604,6.798l2.603,-6.798l-0.774,0l-1.829,4.892l-1.829,-4.892Z" style="fill:#999;fill-rule:nonzero;"/><path d="M32.045,5.199l0.757,1.82l0.792,0l-2.885,-6.721l-2.96,6.721l0.782,0l0.775,-1.82l2.739,0Zm-0.281,-0.664l-2.169,0l1.097,-2.57l1.072,2.57Z" style="fill:#999;fill-rule:nonzero;"/><path d="M38.835,3.208l0,-2.604l-0.715,0l0,6.415l0.715,0l0,-3.148l3.284,0l0,3.148l0.715,0l0,-6.415l-0.715,0l0,2.604l-3.284,0Z" style="fill:#999;fill-rule:nonzero;"/><path d="M44.748,7.019l3.327,0l0,-0.663l-2.612,0l0,-2.519l2.535,0l0,-0.663l-2.535,0l0,-1.906l2.612,0l0,-0.664l-3.327,0l0,6.415Z" style="fill:#999;fill-rule:nonzero;"/><path d="M50.593,0.604l-0.715,0l0,6.415l2.485,0l0,-0.663l-1.77,0l0,-5.752Z" style="fill:#999;fill-rule:nonzero;"/><path d="M54.371,4.212l0.519,0c0.536,0 1.089,-0.068 1.522,-0.426c0.4,-0.332 0.613,-0.859 0.613,-1.378c0,-0.57 -0.247,-1.132 -0.723,-1.464c-0.468,-0.323 -1.038,-0.34 -1.591,-0.34l-1.055,0l0,6.415l0.715,0l0,-2.807Zm0,-2.944l0.263,0c0.834,0 1.676,0.076 1.676,1.123c0,0.919 -0.672,1.157 -1.463,1.157l-0.476,0l0,-2.28Z" style="fill:#999;fill-rule:nonzero;"/><path d="M58.523,7.019l3.326,0l0,-0.663l-2.612,0l0,-2.519l2.536,0l0,-0.663l-2.536,0l0,-1.906l2.612,0l0,-0.664l-3.326,0l0,6.415Z" style="fill:#999;fill-rule:nonzero;"/><path d="M64.368,1.268l0.212,0c0.86,0 1.634,0.102 1.634,1.157c0,0.995 -0.817,1.148 -1.625,1.148l-0.221,0l0,-2.305Zm0,2.935l0.178,0l1.94,2.816l0.876,0l-2.041,-2.875c0.986,-0.086 1.608,-0.783 1.608,-1.77c0,-1.447 -1.132,-1.77 -2.349,-1.77l-0.927,0l0,6.415l0.715,0l0,-2.816Z" style="fill:#999;fill-rule:nonzero;"/></svg>